Solucao do desafio de UML


classDiagram
    iPhone --|> ReprodutorMusical
    iPhone --|> AparelhoTelefonico
    iPhone --|> NavegadorInternet
    class ReprodutorMusical{
      +tocar()
      +pausar()
      +selecionarMusica(String musica)
    }
    class AparelhoTelefonico{
      +ligar(String numero)
      +atender()
      +iniciarCorreioVoz()
    }
    class NavegadorInternet{
      +exibirPagina(String url)
      +adicionarNovaAba()
      +atualizarPagina()
    }
